<svg width="62" height="14" viewBox="0 0 62 14" fill="none" xmlns="http://www.w3.org/2000/svg">
<path d="M4.8252 2.37305L1.85156 11H0.0537109L3.7998 1.04688H4.94824L4.8252 2.37305ZM7.31348 11L4.33301 2.37305L4.20312 1.04688H5.3584L9.11816 11H7.31348ZM7.16992 7.30859V8.66895H1.75586V7.30859H7.16992ZM13.0898 9.82422C13.3587 9.82422 13.6003 9.77181 13.8145 9.66699C14.0332 9.55762 14.2087 9.40723 14.3408 9.21582C14.4775 9.02441 14.5527 8.80339 14.5664 8.55273H16.1182C16.109 9.03125 15.9678 9.46647 15.6943 9.8584C15.4209 10.2503 15.0586 10.5625 14.6074 10.7949C14.1562 11.0228 13.6572 11.1367 13.1104 11.1367C12.5452 11.1367 12.0531 11.041 11.6338 10.8496C11.2145 10.6536 10.8659 10.3848 10.5879 10.043C10.3099 9.70117 10.1003 9.30697 9.95898 8.86035C9.82227 8.41374 9.75391 7.93522 9.75391 7.4248V7.18555C9.75391 6.67513 9.82227 6.19661 9.95898 5.75C10.1003 5.29883 10.3099 4.90234 10.5879 4.56055C10.8659 4.21875 11.2145 3.95215 11.6338 3.76074C12.0531 3.56478 12.543 3.4668 13.1035 3.4668C13.696 3.4668 14.2155 3.58529 14.6621 3.82227C15.1087 4.05469 15.4596 4.38053 15.7148 4.7998C15.9746 5.21452 16.109 5.69759 16.1182 6.24902H14.5664C14.5527 5.97559 14.4844 5.72949 14.3613 5.51074C14.2428 5.28743 14.0742 5.1097 13.8555 4.97754C13.6413 4.84538 13.3838 4.7793 13.083 4.7793C12.7503 4.7793 12.4746 4.84766 12.2559 4.98438C12.0371 5.11654 11.8662 5.29883 11.7432 5.53125C11.6201 5.75911 11.5312 6.0166 11.4766 6.30371C11.4264 6.58626 11.4014 6.88021 11.4014 7.18555V7.4248C11.4014 7.73014 11.4264 8.02637 11.4766 8.31348C11.5267 8.60059 11.6133 8.85807 11.7363 9.08594C11.8639 9.30924 12.0371 9.48926 12.2559 9.62598C12.4746 9.75814 12.7526 9.82422 13.0898 9.82422ZM20.4043 9.82422C20.6732 9.82422 20.9147 9.77181 21.1289 9.66699C21.3477 9.55762 21.5231 9.40723 21.6553 9.21582C21.792 9.02441 21.8672 8.80339 21.8809 8.55273H23.4326C23.4235 9.03125 23.2822 9.46647 23.0088 9.8584C22.7354 10.2503 22.373 10.5625 21.9219 10.7949C21.4707 11.0228 20.9717 11.1367 20.4248 11.1367C19.8597 11.1367 19.3675 11.041 18.9482 10.8496C18.529 10.6536 18.1803 10.3848 17.9023 10.043C17.6243 9.70117 17.4147 9.30697 17.2734 8.86035C17.1367 8.41374 17.0684 7.93522 17.0684 7.4248V7.18555C17.0684 6.67513 17.1367 6.19661 17.2734 5.75C17.4147 5.29883 17.6243 4.90234 17.9023 4.56055C18.1803 4.21875 18.529 3.95215 18.9482 3.76074C19.3675 3.56478 19.8574 3.4668 20.418 3.4668C21.0104 3.4668 21.5299 3.58529 21.9766 3.82227C22.4232 4.05469 22.7741 4.38053 23.0293 4.7998C23.2891 5.21452 23.4235 5.69759 23.4326 6.24902H21.8809C21.8672 5.97559 21.7988 5.72949 21.6758 5.51074C21.5573 5.28743 21.3887 5.1097 21.1699 4.97754C20.9557 4.84538 20.6982 4.7793 20.3975 4.7793C20.0648 4.7793 19.7891 4.84766 19.5703 4.98438C19.3516 5.11654 19.1807 5.29883 19.0576 5.53125C18.9346 5.75911 18.8457 6.0166 18.791 6.30371C18.7409 6.58626 18.7158 6.88021 18.7158 7.18555V7.4248C18.7158 7.73014 18.7409 8.02637 18.791 8.31348C18.8411 8.60059 18.9277 8.85807 19.0508 9.08594C19.1784 9.30924 19.3516 9.48926 19.5703 9.62598C19.7891 9.75814 20.0671 9.82422 20.4043 9.82422ZM27.958 11.1367C27.4111 11.1367 26.9167 11.0479 26.4746 10.8701C26.0371 10.6878 25.6634 10.4349 25.3535 10.1113C25.0482 9.78776 24.8135 9.40723 24.6494 8.96973C24.4854 8.53223 24.4033 8.06055 24.4033 7.55469V7.28125C24.4033 6.70247 24.4876 6.17839 24.6562 5.70898C24.8249 5.23958 25.0596 4.83854 25.3604 4.50586C25.6611 4.16862 26.0166 3.91113 26.4268 3.7334C26.8369 3.55566 27.2812 3.4668 27.7598 3.4668C28.2884 3.4668 28.751 3.55566 29.1475 3.7334C29.5439 3.91113 29.8721 4.16178 30.1318 4.48535C30.3962 4.80436 30.5921 5.1849 30.7197 5.62695C30.8519 6.06901 30.918 6.55664 30.918 7.08984V7.79395H25.2031V6.61133H29.291V6.48145C29.2819 6.18522 29.2227 5.90723 29.1133 5.64746C29.0085 5.3877 28.8467 5.17806 28.6279 5.01855C28.4092 4.85905 28.1175 4.7793 27.7529 4.7793C27.4795 4.7793 27.2357 4.83854 27.0215 4.95703C26.8118 5.07096 26.6364 5.2373 26.4951 5.45605C26.3538 5.6748 26.2445 5.93913 26.167 6.24902C26.0941 6.55436 26.0576 6.89844 26.0576 7.28125V7.55469C26.0576 7.87826 26.1009 8.17904 26.1875 8.45703C26.2786 8.73047 26.4108 8.96973 26.584 9.1748C26.7572 9.37988 26.9668 9.54167 27.2129 9.66016C27.459 9.77409 27.7393 9.83105 28.0537 9.83105C28.4502 9.83105 28.8034 9.7513 29.1133 9.5918C29.4232 9.43229 29.6921 9.20671 29.9199 8.91504L30.7881 9.75586C30.6286 9.98828 30.4212 10.2116 30.166 10.4258C29.9108 10.6354 29.5986 10.8063 29.2295 10.9385C28.8649 11.0706 28.4411 11.1367 27.958 11.1367ZM33.8574 5.02539V13.8438H32.21V3.60352H33.7275L33.8574 5.02539ZM38.6768 7.2334V7.37695C38.6768 7.91471 38.613 8.41374 38.4854 8.87402C38.3623 9.32975 38.1777 9.72852 37.9316 10.0703C37.6901 10.4076 37.3916 10.6696 37.0361 10.8564C36.6807 11.0433 36.2705 11.1367 35.8057 11.1367C35.3454 11.1367 34.9421 11.0524 34.5957 10.8838C34.2539 10.7106 33.9645 10.4668 33.7275 10.1523C33.4906 9.83789 33.2992 9.46875 33.1533 9.04492C33.012 8.61654 32.9118 8.14714 32.8525 7.63672V7.08301C32.9118 6.54069 33.012 6.0485 33.1533 5.60645C33.2992 5.16439 33.4906 4.78385 33.7275 4.46484C33.9645 4.14583 34.2539 3.89974 34.5957 3.72656C34.9375 3.55339 35.3363 3.4668 35.792 3.4668C36.2568 3.4668 36.6693 3.55794 37.0293 3.74023C37.3893 3.91797 37.6924 4.17318 37.9385 4.50586C38.1846 4.83398 38.3691 5.23047 38.4922 5.69531C38.6152 6.1556 38.6768 6.66829 38.6768 7.2334ZM37.0293 7.37695V7.2334C37.0293 6.8916 36.9974 6.57487 36.9336 6.2832C36.8698 5.98698 36.7695 5.72721 36.6328 5.50391C36.4961 5.2806 36.3206 5.10742 36.1064 4.98438C35.8968 4.85677 35.6439 4.79297 35.3477 4.79297C35.056 4.79297 34.8053 4.8431 34.5957 4.94336C34.3861 5.03906 34.2106 5.1735 34.0693 5.34668C33.9281 5.51986 33.8187 5.72266 33.7412 5.95508C33.6637 6.18294 33.609 6.43132 33.5771 6.7002V8.02637C33.6318 8.35449 33.7253 8.65527 33.8574 8.92871C33.9896 9.20215 34.1764 9.4209 34.418 9.58496C34.6641 9.74447 34.9785 9.82422 35.3613 9.82422C35.6576 9.82422 35.9105 9.76042 36.1201 9.63281C36.3298 9.50521 36.5007 9.32975 36.6328 9.10645C36.7695 8.87858 36.8698 8.61654 36.9336 8.32031C36.9974 8.02409 37.0293 7.70964 37.0293 7.37695ZM43.4688 3.60352V4.80664H39.2988V3.60352H43.4688ZM40.502 1.79199H42.1494V8.95605C42.1494 9.18392 42.1813 9.35938 42.2451 9.48242C42.3135 9.60091 42.4069 9.68066 42.5254 9.72168C42.6439 9.7627 42.7829 9.7832 42.9424 9.7832C43.0563 9.7832 43.1657 9.77637 43.2705 9.7627C43.3753 9.74902 43.4596 9.73535 43.5234 9.72168L43.5303 10.9795C43.3936 11.0205 43.234 11.057 43.0518 11.0889C42.874 11.1208 42.6689 11.1367 42.4365 11.1367C42.0583 11.1367 41.7233 11.0706 41.4316 10.9385C41.14 10.8018 40.9121 10.5807 40.748 10.2754C40.584 9.97005 40.502 9.56445 40.502 9.05859V1.79199ZM52.3965 9.5166V5.98926C52.3965 5.72493 52.3486 5.49707 52.2529 5.30566C52.1572 5.11426 52.0114 4.96615 51.8154 4.86133C51.624 4.75651 51.3825 4.7041 51.0908 4.7041C50.8219 4.7041 50.5895 4.74967 50.3936 4.84082C50.1976 4.93197 50.0449 5.05501 49.9355 5.20996C49.8262 5.36491 49.7715 5.54036 49.7715 5.73633H48.1309C48.1309 5.44466 48.2015 5.16211 48.3428 4.88867C48.484 4.61523 48.6891 4.37142 48.958 4.15723C49.2269 3.94303 49.5482 3.77441 49.9219 3.65137C50.2956 3.52832 50.7148 3.4668 51.1797 3.4668C51.7357 3.4668 52.2279 3.56022 52.6562 3.74707C53.0892 3.93392 53.4287 4.21647 53.6748 4.59473C53.9255 4.96842 54.0508 5.43783 54.0508 6.00293V9.29102C54.0508 9.62826 54.0736 9.93132 54.1191 10.2002C54.1693 10.4645 54.2399 10.6947 54.3311 10.8906V11H52.6426C52.5651 10.8223 52.5036 10.5967 52.458 10.3232C52.417 10.0452 52.3965 9.77637 52.3965 9.5166ZM52.6357 6.50195L52.6494 7.52051H51.4668C51.1615 7.52051 50.8926 7.55013 50.6602 7.60938C50.4277 7.66406 50.234 7.74609 50.0791 7.85547C49.9242 7.96484 49.8079 8.09701 49.7305 8.25195C49.653 8.4069 49.6143 8.58236 49.6143 8.77832C49.6143 8.97428 49.6598 9.1543 49.751 9.31836C49.8421 9.47786 49.9743 9.60319 50.1475 9.69434C50.3252 9.78548 50.5394 9.83105 50.79 9.83105C51.1273 9.83105 51.4212 9.7627 51.6719 9.62598C51.9271 9.4847 52.1276 9.3138 52.2734 9.11328C52.4193 8.9082 52.4967 8.71452 52.5059 8.53223L53.0391 9.26367C52.9844 9.45052 52.891 9.65104 52.7588 9.86523C52.6266 10.0794 52.4535 10.2845 52.2393 10.4805C52.0296 10.6719 51.7767 10.8291 51.4805 10.9521C51.1888 11.0752 50.8516 11.1367 50.4688 11.1367C49.9857 11.1367 49.555 11.041 49.1768 10.8496C48.7985 10.6536 48.5023 10.3916 48.2881 10.0635C48.0739 9.73079 47.9668 9.35482 47.9668 8.93555C47.9668 8.54362 48.0397 8.19727 48.1855 7.89648C48.3359 7.59115 48.5547 7.33594 48.8418 7.13086C49.1335 6.92578 49.4889 6.77083 49.9082 6.66602C50.3275 6.55664 50.806 6.50195 51.3438 6.50195H52.6357ZM57.5371 0.5V11H55.8828V0.5H57.5371ZM61.1055 0.5V11H59.4512V0.5H61.1055Z" fill="white"/>
</svg>
