<svg width="44" height="13" viewBox="0 0 44 13" fill="none" xmlns="http://www.w3.org/2000/svg">
<path d="M4.91016 1.37305L1.93652 10H0.138672L3.88477 0.046875H5.0332L4.91016 1.37305ZM7.39844 10L4.41797 1.37305L4.28809 0.046875H5.44336L9.20312 10H7.39844ZM7.25488 6.30859V7.66895H1.84082V6.30859H7.25488ZM13.1748 8.82422C13.4437 8.82422 13.6852 8.77181 13.8994 8.66699C14.1182 8.55762 14.2936 8.40723 14.4258 8.21582C14.5625 8.02441 14.6377 7.80339 14.6514 7.55273H16.2031C16.194 8.03125 16.0527 8.46647 15.7793 8.8584C15.5059 9.25033 15.1436 9.5625 14.6924 9.79492C14.2412 10.0228 13.7422 10.1367 13.1953 10.1367C12.6302 10.1367 12.138 10.041 11.7188 9.84961C11.2995 9.65365 10.9508 9.38477 10.6729 9.04297C10.3949 8.70117 10.1852 8.30697 10.0439 7.86035C9.90723 7.41374 9.83887 6.93522 9.83887 6.4248V6.18555C9.83887 5.67513 9.90723 5.19661 10.0439 4.75C10.1852 4.29883 10.3949 3.90234 10.6729 3.56055C10.9508 3.21875 11.2995 2.95215 11.7188 2.76074C12.138 2.56478 12.6279 2.4668 13.1885 2.4668C13.7809 2.4668 14.3005 2.58529 14.7471 2.82227C15.1937 3.05469 15.5446 3.38053 15.7998 3.7998C16.0596 4.21452 16.194 4.69759 16.2031 5.24902H14.6514C14.6377 4.97559 14.5693 4.72949 14.4463 4.51074C14.3278 4.28743 14.1592 4.1097 13.9404 3.97754C13.7262 3.84538 13.4688 3.7793 13.168 3.7793C12.8353 3.7793 12.5596 3.84766 12.3408 3.98438C12.1221 4.11654 11.9512 4.29883 11.8281 4.53125C11.7051 4.75911 11.6162 5.0166 11.5615 5.30371C11.5114 5.58626 11.4863 5.88021 11.4863 6.18555V6.4248C11.4863 6.73014 11.5114 7.02637 11.5615 7.31348C11.6117 7.60059 11.6982 7.85807 11.8213 8.08594C11.9489 8.30924 12.1221 8.48926 12.3408 8.62598C12.5596 8.75814 12.8376 8.82422 13.1748 8.82422ZM20.4893 8.82422C20.7581 8.82422 20.9997 8.77181 21.2139 8.66699C21.4326 8.55762 21.6081 8.40723 21.7402 8.21582C21.877 8.02441 21.9521 7.80339 21.9658 7.55273H23.5176C23.5085 8.03125 23.3672 8.46647 23.0938 8.8584C22.8203 9.25033 22.458 9.5625 22.0068 9.79492C21.5557 10.0228 21.0566 10.1367 20.5098 10.1367C19.9447 10.1367 19.4525 10.041 19.0332 9.84961C18.6139 9.65365 18.2653 9.38477 17.9873 9.04297C17.7093 8.70117 17.4997 8.30697 17.3584 7.86035C17.2217 7.41374 17.1533 6.93522 17.1533 6.4248V6.18555C17.1533 5.67513 17.2217 5.19661 17.3584 4.75C17.4997 4.29883 17.7093 3.90234 17.9873 3.56055C18.2653 3.21875 18.6139 2.95215 19.0332 2.76074C19.4525 2.56478 19.9424 2.4668 20.5029 2.4668C21.0954 2.4668 21.6149 2.58529 22.0615 2.82227C22.5081 3.05469 22.859 3.38053 23.1143 3.7998C23.374 4.21452 23.5085 4.69759 23.5176 5.24902H21.9658C21.9521 4.97559 21.8838 4.72949 21.7607 4.51074C21.6423 4.28743 21.4736 4.1097 21.2549 3.97754C21.0407 3.84538 20.7832 3.7793 20.4824 3.7793C20.1497 3.7793 19.874 3.84766 19.6553 3.98438C19.4365 4.11654 19.2656 4.29883 19.1426 4.53125C19.0195 4.75911 18.9307 5.0166 18.876 5.30371C18.8258 5.58626 18.8008 5.88021 18.8008 6.18555V6.4248C18.8008 6.73014 18.8258 7.02637 18.876 7.31348C18.9261 7.60059 19.0127 7.85807 19.1357 8.08594C19.2633 8.30924 19.4365 8.48926 19.6553 8.62598C19.874 8.75814 20.152 8.82422 20.4893 8.82422ZM28.043 10.1367C27.4961 10.1367 27.0016 10.0479 26.5596 9.87012C26.1221 9.68783 25.7484 9.4349 25.4385 9.11133C25.1331 8.78776 24.8984 8.40723 24.7344 7.96973C24.5703 7.53223 24.4883 7.06055 24.4883 6.55469V6.28125C24.4883 5.70247 24.5726 5.17839 24.7412 4.70898C24.9098 4.23958 25.1445 3.83854 25.4453 3.50586C25.7461 3.16862 26.1016 2.91113 26.5117 2.7334C26.9219 2.55566 27.3662 2.4668 27.8447 2.4668C28.3734 2.4668 28.8359 2.55566 29.2324 2.7334C29.6289 2.91113 29.957 3.16178 30.2168 3.48535C30.4811 3.80436 30.6771 4.1849 30.8047 4.62695C30.9368 5.06901 31.0029 5.55664 31.0029 6.08984V6.79395H25.2881V5.61133H29.376V5.48145C29.3669 5.18522 29.3076 4.90723 29.1982 4.64746C29.0934 4.3877 28.9316 4.17806 28.7129 4.01855C28.4941 3.85905 28.2025 3.7793 27.8379 3.7793C27.5645 3.7793 27.3206 3.83854 27.1064 3.95703C26.8968 4.07096 26.7214 4.2373 26.5801 4.45605C26.4388 4.6748 26.3294 4.93913 26.252 5.24902C26.179 5.55436 26.1426 5.89844 26.1426 6.28125V6.55469C26.1426 6.87826 26.1859 7.17904 26.2725 7.45703C26.3636 7.73047 26.4958 7.96973 26.6689 8.1748C26.8421 8.37988 27.0518 8.54167 27.2979 8.66016C27.5439 8.77409 27.8242 8.83105 28.1387 8.83105C28.5352 8.83105 28.8883 8.7513 29.1982 8.5918C29.5081 8.43229 29.777 8.20671 30.0049 7.91504L30.873 8.75586C30.7135 8.98828 30.5062 9.21159 30.251 9.42578C29.9958 9.63542 29.6836 9.80632 29.3145 9.93848C28.9499 10.0706 28.526 10.1367 28.043 10.1367ZM33.9424 4.02539V12.8438H32.2949V2.60352H33.8125L33.9424 4.02539ZM38.7617 6.2334V6.37695C38.7617 6.91471 38.6979 7.41374 38.5703 7.87402C38.4473 8.32975 38.2627 8.72852 38.0166 9.07031C37.7751 9.40755 37.4766 9.6696 37.1211 9.85645C36.7656 10.0433 36.3555 10.1367 35.8906 10.1367C35.4303 10.1367 35.027 10.0524 34.6807 9.88379C34.3389 9.71061 34.0495 9.4668 33.8125 9.15234C33.5755 8.83789 33.3841 8.46875 33.2383 8.04492C33.097 7.61654 32.9967 7.14714 32.9375 6.63672V6.08301C32.9967 5.54069 33.097 5.0485 33.2383 4.60645C33.3841 4.16439 33.5755 3.78385 33.8125 3.46484C34.0495 3.14583 34.3389 2.89974 34.6807 2.72656C35.0225 2.55339 35.4212 2.4668 35.877 2.4668C36.3418 2.4668 36.7542 2.55794 37.1143 2.74023C37.4743 2.91797 37.7773 3.17318 38.0234 3.50586C38.2695 3.83398 38.4541 4.23047 38.5771 4.69531C38.7002 5.1556 38.7617 5.66829 38.7617 6.2334ZM37.1143 6.37695V6.2334C37.1143 5.8916 37.0824 5.57487 37.0186 5.2832C36.9548 4.98698 36.8545 4.72721 36.7178 4.50391C36.5811 4.2806 36.4056 4.10742 36.1914 3.98438C35.9818 3.85677 35.7288 3.79297 35.4326 3.79297C35.141 3.79297 34.8903 3.8431 34.6807 3.94336C34.471 4.03906 34.2956 4.1735 34.1543 4.34668C34.013 4.51986 33.9036 4.72266 33.8262 4.95508C33.7487 5.18294 33.694 5.43132 33.6621 5.7002V7.02637C33.7168 7.35449 33.8102 7.65527 33.9424 7.92871C34.0745 8.20215 34.2614 8.4209 34.5029 8.58496C34.749 8.74447 35.0635 8.82422 35.4463 8.82422C35.7425 8.82422 35.9954 8.76042 36.2051 8.63281C36.4147 8.50521 36.5856 8.32975 36.7178 8.10645C36.8545 7.87858 36.9548 7.61654 37.0186 7.32031C37.0824 7.02409 37.1143 6.70964 37.1143 6.37695ZM43.5537 2.60352V3.80664H39.3838V2.60352H43.5537ZM40.5869 0.791992H42.2344V7.95605C42.2344 8.18392 42.2663 8.35938 42.3301 8.48242C42.3984 8.60091 42.4919 8.68066 42.6104 8.72168C42.7288 8.7627 42.8678 8.7832 43.0273 8.7832C43.1413 8.7832 43.2507 8.77637 43.3555 8.7627C43.4603 8.74902 43.5446 8.73535 43.6084 8.72168L43.6152 9.97949C43.4785 10.0205 43.319 10.057 43.1367 10.0889C42.959 10.1208 42.7539 10.1367 42.5215 10.1367C42.1432 10.1367 41.8083 10.0706 41.5166 9.93848C41.2249 9.80176 40.9971 9.58073 40.833 9.27539C40.6689 8.97005 40.5869 8.56445 40.5869 8.05859V0.791992Z" fill="white"/>
</svg>
