<svg width="31" height="10" viewBox="0 0 31 10" fill="none" xmlns="http://www.w3.org/2000/svg">
<path d="M1.69602 9H0.298295L3.43892 0.272727H4.96023L8.10085 9H6.70312L4.2358 1.85795H4.16761L1.69602 9ZM1.9304 5.58239H6.46449V6.69034H1.9304V5.58239ZM10.533 0.272727V9H9.25888V0.272727H10.533ZM13.5213 0.272727V9H12.2472V0.272727H13.5213ZM17.9925 9.1321C17.3789 9.1321 16.8434 8.99148 16.386 8.71023C15.9286 8.42898 15.5735 8.03551 15.3207 7.52983C15.0678 7.02415 14.9414 6.43324 14.9414 5.7571C14.9414 5.07812 15.0678 4.48437 15.3207 3.97585C15.5735 3.46733 15.9286 3.07244 16.386 2.79119C16.8434 2.50994 17.3789 2.36932 17.9925 2.36932C18.6062 2.36932 19.1417 2.50994 19.5991 2.79119C20.0565 3.07244 20.4116 3.46733 20.6644 3.97585C20.9173 4.48437 21.0437 5.07812 21.0437 5.7571C21.0437 6.43324 20.9173 7.02415 20.6644 7.52983C20.4116 8.03551 20.0565 8.42898 19.5991 8.71023C19.1417 8.99148 18.6062 9.1321 17.9925 9.1321ZM17.9968 8.0625C18.3945 8.0625 18.7241 7.95739 18.9854 7.74716C19.2468 7.53693 19.44 7.2571 19.565 6.90767C19.6928 6.55824 19.7567 6.1733 19.7567 5.75284C19.7567 5.33523 19.6928 4.9517 19.565 4.60227C19.44 4.25 19.2468 3.96733 18.9854 3.75426C18.7241 3.54119 18.3945 3.43466 17.9968 3.43466C17.5962 3.43466 17.2638 3.54119 16.9996 3.75426C16.7383 3.96733 16.5437 4.25 16.4158 4.60227C16.2908 4.9517 16.2283 5.33523 16.2283 5.75284C16.2283 6.1733 16.2908 6.55824 16.4158 6.90767C16.5437 7.2571 16.7383 7.53693 16.9996 7.74716C17.2638 7.95739 17.5962 8.0625 17.9968 8.0625ZM23.6857 9L21.7596 2.45455H23.0763L24.359 7.26136H24.4229L25.7099 2.45455H27.0266L28.305 7.24006H28.369L29.6431 2.45455H30.9599L29.038 9H27.7383L26.4087 4.27415H26.3107L24.9812 9H23.6857Z" fill="white"/>
</svg>
