<svg width="43" height="11" viewBox="0 0 43 11" fill="none" xmlns="http://www.w3.org/2000/svg">
<path d="M3.78409 10H0.958807V1.27273H3.87358C4.72869 1.27273 5.46307 1.44744 6.0767 1.79688C6.69034 2.14347 7.16051 2.64205 7.48722 3.29261C7.81676 3.94034 7.98153 4.71733 7.98153 5.62358C7.98153 6.53267 7.81534 7.31392 7.48295 7.96733C7.15341 8.62074 6.67614 9.12358 6.05114 9.47585C5.42614 9.82528 4.67045 10 3.78409 10ZM2.27557 8.84943H3.71165C4.37642 8.84943 4.92898 8.72443 5.36932 8.47443C5.80966 8.22159 6.1392 7.85653 6.35795 7.37926C6.5767 6.89915 6.68608 6.31392 6.68608 5.62358C6.68608 4.93892 6.5767 4.35795 6.35795 3.88068C6.14205 3.40341 5.8196 3.04119 5.39062 2.79403C4.96165 2.54687 4.42898 2.4233 3.79261 2.4233H2.27557V8.84943ZM12.3377 10.1321C11.6928 10.1321 11.1374 9.99432 10.6715 9.71875C10.2085 9.44034 9.8505 9.04972 9.59766 8.54688C9.34766 8.04119 9.22266 7.44886 9.22266 6.76989C9.22266 6.09943 9.34766 5.50852 9.59766 4.99716C9.8505 4.4858 10.2028 4.08665 10.6545 3.79972C11.109 3.51278 11.6403 3.36932 12.2482 3.36932C12.6175 3.36932 12.9755 3.4304 13.3221 3.55256C13.6687 3.67472 13.9798 3.86648 14.2553 4.12784C14.5309 4.3892 14.7482 4.72869 14.9073 5.14631C15.0664 5.56108 15.146 6.06534 15.146 6.65909V7.1108H9.94283V6.15625H13.8974C13.8974 5.82102 13.8292 5.52415 13.6928 5.26562C13.5565 5.00426 13.3647 4.7983 13.1175 4.64773C12.8732 4.49716 12.5863 4.42188 12.2567 4.42188C11.8988 4.42188 11.5863 4.50994 11.3192 4.68608C11.055 4.85937 10.8505 5.08665 10.7056 5.3679C10.5636 5.64631 10.4925 5.94886 10.4925 6.27557V7.02131C10.4925 7.45881 10.5692 7.83097 10.7227 8.13778C10.8789 8.4446 11.0962 8.67898 11.3746 8.84091C11.6531 9 11.9783 9.07955 12.3505 9.07955C12.592 9.07955 12.8121 9.04545 13.011 8.97727C13.2099 8.90625 13.3817 8.80114 13.5266 8.66193C13.6715 8.52273 13.7823 8.35085 13.859 8.14631L15.065 8.36364C14.9684 8.71875 14.7951 9.02983 14.5451 9.29688C14.2979 9.56108 13.9869 9.76705 13.6119 9.91477C13.2397 10.0597 12.815 10.1321 12.3377 10.1321ZM19.3168 10.1321C18.6832 10.1321 18.1378 9.98864 17.6804 9.7017C17.2259 9.41193 16.8764 9.01278 16.6321 8.50426C16.3878 7.99574 16.2656 7.41335 16.2656 6.7571C16.2656 6.09233 16.3906 5.50568 16.6406 4.99716C16.8906 4.4858 17.2429 4.08665 17.6974 3.79972C18.152 3.51278 18.6875 3.36932 19.304 3.36932C19.8011 3.36932 20.2443 3.46165 20.6335 3.64631C21.0227 3.82812 21.3366 4.08381 21.5753 4.41335C21.8168 4.7429 21.9602 5.12784 22.0057 5.56818H20.7656C20.6974 5.26136 20.5412 4.99716 20.2969 4.77557C20.0554 4.55398 19.7315 4.44318 19.3253 4.44318C18.9702 4.44318 18.6591 4.53693 18.392 4.72443C18.1278 4.90909 17.9219 5.1733 17.7741 5.51705C17.6264 5.85795 17.5526 6.26136 17.5526 6.72727C17.5526 7.20455 17.625 7.61648 17.7699 7.96307C17.9148 8.30966 18.1193 8.57812 18.3835 8.76847C18.6506 8.95881 18.9645 9.05398 19.3253 9.05398C19.5668 9.05398 19.7855 9.00994 19.9815 8.92188C20.1804 8.83097 20.3466 8.7017 20.4801 8.53409C20.6165 8.36648 20.7116 8.16477 20.7656 7.92898H22.0057C21.9602 8.35227 21.8224 8.73011 21.5923 9.0625C21.3622 9.39489 21.054 9.65625 20.6676 9.84659C20.2841 10.0369 19.8338 10.1321 19.3168 10.1321ZM24.6424 1.27273V10H23.3683V1.27273H24.6424ZM26.3565 10V3.45455H27.6307V10H26.3565ZM27 2.4446C26.7784 2.4446 26.5881 2.37074 26.429 2.22301C26.2727 2.07244 26.1946 1.89347 26.1946 1.68608C26.1946 1.47585 26.2727 1.29687 26.429 1.14915C26.5881 0.998579 26.7784 0.923295 27 0.923295C27.2216 0.923295 27.4105 0.998579 27.5668 1.14915C27.7259 1.29687 27.8054 1.47585 27.8054 1.68608C27.8054 1.89347 27.7259 2.07244 27.5668 2.22301C27.4105 2.37074 27.2216 2.4446 27 2.4446ZM30.619 6.11364V10H29.3448V3.45455H30.5678V4.51989H30.6488C30.7994 4.1733 31.0352 3.89489 31.3562 3.68466C31.68 3.47443 32.0877 3.36932 32.5792 3.36932C33.0252 3.36932 33.4158 3.46307 33.7511 3.65057C34.0863 3.83523 34.3462 4.1108 34.5309 4.47727C34.7156 4.84375 34.8079 5.29687 34.8079 5.83665V10H33.5337V5.99006C33.5337 5.51562 33.4102 5.14489 33.163 4.87784C32.9158 4.60795 32.5763 4.47301 32.1445 4.47301C31.8491 4.47301 31.5863 4.53693 31.3562 4.66477C31.1289 4.79261 30.9485 4.98011 30.815 5.22727C30.6843 5.47159 30.619 5.76705 30.619 6.11364ZM39.3377 10.1321C38.6928 10.1321 38.1374 9.99432 37.6715 9.71875C37.2085 9.44034 36.8505 9.04972 36.5977 8.54688C36.3477 8.04119 36.2227 7.44886 36.2227 6.76989C36.2227 6.09943 36.3477 5.50852 36.5977 4.99716C36.8505 4.4858 37.2028 4.08665 37.6545 3.79972C38.109 3.51278 38.6403 3.36932 39.2482 3.36932C39.6175 3.36932 39.9755 3.4304 40.3221 3.55256C40.6687 3.67472 40.9798 3.86648 41.2553 4.12784C41.5309 4.3892 41.7482 4.72869 41.9073 5.14631C42.0664 5.56108 42.146 6.06534 42.146 6.65909V7.1108H36.9428V6.15625H40.8974C40.8974 5.82102 40.8292 5.52415 40.6928 5.26562C40.5565 5.00426 40.3647 4.7983 40.1175 4.64773C39.8732 4.49716 39.5863 4.42188 39.2567 4.42188C38.8988 4.42188 38.5863 4.50994 38.3192 4.68608C38.055 4.85937 37.8505 5.08665 37.7056 5.3679C37.5636 5.64631 37.4925 5.94886 37.4925 6.27557V7.02131C37.4925 7.45881 37.5692 7.83097 37.7227 8.13778C37.8789 8.4446 38.0962 8.67898 38.3746 8.84091C38.6531 9 38.9783 9.07955 39.3505 9.07955C39.592 9.07955 39.8121 9.04545 40.011 8.97727C40.2099 8.90625 40.3817 8.80114 40.5266 8.66193C40.6715 8.52273 40.7823 8.35085 40.859 8.14631L42.065 8.36364C41.9684 8.71875 41.7951 9.02983 41.5451 9.29688C41.2979 9.56108 40.9869 9.76705 40.6119 9.91477C40.2397 10.0597 39.815 10.1321 39.3377 10.1321Z" fill="#0D0C22"/>
</svg>
