<svg width="102" height="14" viewBox="0 0 102 14" fill="none" xmlns="http://www.w3.org/2000/svg">
<path d="M1.28223 1.04688H2.81348L5.69141 8.72363L8.5625 1.04688H10.0938L6.29297 11H5.07617L1.28223 1.04688ZM0.584961 1.04688H2.04102L2.29395 7.69141V11H0.584961V1.04688ZM9.33496 1.04688H10.7979V11H9.08203V7.69141L9.33496 1.04688ZM16.8408 9.5166V5.98926C16.8408 5.72493 16.793 5.49707 16.6973 5.30566C16.6016 5.11426 16.4557 4.96615 16.2598 4.86133C16.0684 4.75651 15.8268 4.7041 15.5352 4.7041C15.2663 4.7041 15.0339 4.74967 14.8379 4.84082C14.6419 4.93197 14.4893 5.05501 14.3799 5.20996C14.2705 5.36491 14.2158 5.54036 14.2158 5.73633H12.5752C12.5752 5.44466 12.6458 5.16211 12.7871 4.88867C12.9284 4.61523 13.1335 4.37142 13.4023 4.15723C13.6712 3.94303 13.9925 3.77441 14.3662 3.65137C14.7399 3.52832 15.1592 3.4668 15.624 3.4668C16.18 3.4668 16.6722 3.56022 17.1006 3.74707C17.5335 3.93392 17.873 4.21647 18.1191 4.59473C18.3698 4.96842 18.4951 5.43783 18.4951 6.00293V9.29102C18.4951 9.62826 18.5179 9.93132 18.5635 10.2002C18.6136 10.4645 18.6842 10.6947 18.7754 10.8906V11H17.0869C17.0094 10.8223 16.9479 10.5967 16.9023 10.3232C16.8613 10.0452 16.8408 9.77637 16.8408 9.5166ZM17.0801 6.50195L17.0938 7.52051H15.9111C15.6058 7.52051 15.3369 7.55013 15.1045 7.60938C14.8721 7.66406 14.6784 7.74609 14.5234 7.85547C14.3685 7.96484 14.2523 8.09701 14.1748 8.25195C14.0973 8.4069 14.0586 8.58236 14.0586 8.77832C14.0586 8.97428 14.1042 9.1543 14.1953 9.31836C14.2865 9.47786 14.4186 9.60319 14.5918 9.69434C14.7695 9.78548 14.9837 9.83105 15.2344 9.83105C15.5716 9.83105 15.8656 9.7627 16.1162 9.62598C16.3714 9.4847 16.5719 9.3138 16.7178 9.11328C16.8636 8.9082 16.9411 8.71452 16.9502 8.53223L17.4834 9.26367C17.4287 9.45052 17.3353 9.65104 17.2031 9.86523C17.071 10.0794 16.8978 10.2845 16.6836 10.4805C16.474 10.6719 16.221 10.8291 15.9248 10.9521C15.6331 11.0752 15.2959 11.1367 14.9131 11.1367C14.43 11.1367 13.9993 11.041 13.6211 10.8496C13.2428 10.6536 12.9466 10.3916 12.7324 10.0635C12.5182 9.73079 12.4111 9.35482 12.4111 8.93555C12.4111 8.54362 12.484 8.19727 12.6299 7.89648C12.7803 7.59115 12.999 7.33594 13.2861 7.13086C13.5778 6.92578 13.9333 6.77083 14.3525 6.66602C14.7718 6.55664 15.2503 6.50195 15.7881 6.50195H17.0801ZM21.8516 5.18262V11H20.2041V3.60352H21.7559L21.8516 5.18262ZM21.5576 7.02832L21.0244 7.02148C21.029 6.4974 21.1019 6.0166 21.2432 5.5791C21.389 5.1416 21.5895 4.76562 21.8447 4.45117C22.1045 4.13672 22.4144 3.89518 22.7744 3.72656C23.1344 3.55339 23.5355 3.4668 23.9775 3.4668C24.333 3.4668 24.6543 3.51693 24.9414 3.61719C25.2331 3.71289 25.4814 3.87012 25.6865 4.08887C25.8962 4.30762 26.0557 4.59245 26.165 4.94336C26.2744 5.28971 26.3291 5.71582 26.3291 6.22168V11H24.6748V6.21484C24.6748 5.85938 24.6224 5.5791 24.5176 5.37402C24.4173 5.16439 24.2692 5.01628 24.0732 4.92969C23.8818 4.83854 23.6426 4.79297 23.3555 4.79297C23.0729 4.79297 22.82 4.85221 22.5967 4.9707C22.3734 5.08919 22.1842 5.25098 22.0293 5.45605C21.8789 5.66113 21.7627 5.89811 21.6807 6.16699C21.5986 6.43587 21.5576 6.72298 21.5576 7.02832ZM32.1807 9.5166V5.98926C32.1807 5.72493 32.1328 5.49707 32.0371 5.30566C31.9414 5.11426 31.7956 4.96615 31.5996 4.86133C31.4082 4.75651 31.1667 4.7041 30.875 4.7041C30.6061 4.7041 30.3737 4.74967 30.1777 4.84082C29.9818 4.93197 29.8291 5.05501 29.7197 5.20996C29.6104 5.36491 29.5557 5.54036 29.5557 5.73633H27.915C27.915 5.44466 27.9857 5.16211 28.127 4.88867C28.2682 4.61523 28.4733 4.37142 28.7422 4.15723C29.0111 3.94303 29.3324 3.77441 29.7061 3.65137C30.0798 3.52832 30.499 3.4668 30.9639 3.4668C31.5199 3.4668 32.012 3.56022 32.4404 3.74707C32.8734 3.93392 33.2129 4.21647 33.459 4.59473C33.7096 4.96842 33.835 5.43783 33.835 6.00293V9.29102C33.835 9.62826 33.8577 9.93132 33.9033 10.2002C33.9535 10.4645 34.0241 10.6947 34.1152 10.8906V11H32.4268C32.3493 10.8223 32.2878 10.5967 32.2422 10.3232C32.2012 10.0452 32.1807 9.77637 32.1807 9.5166ZM32.4199 6.50195L32.4336 7.52051H31.251C30.9456 7.52051 30.6768 7.55013 30.4443 7.60938C30.2119 7.66406 30.0182 7.74609 29.8633 7.85547C29.7083 7.96484 29.5921 8.09701 29.5146 8.25195C29.4372 8.4069 29.3984 8.58236 29.3984 8.77832C29.3984 8.97428 29.444 9.1543 29.5352 9.31836C29.6263 9.47786 29.7585 9.60319 29.9316 9.69434C30.1094 9.78548 30.3236 9.83105 30.5742 9.83105C30.9115 9.83105 31.2054 9.7627 31.4561 9.62598C31.7113 9.4847 31.9118 9.3138 32.0576 9.11328C32.2035 8.9082 32.2809 8.71452 32.29 8.53223L32.8232 9.26367C32.7686 9.45052 32.6751 9.65104 32.543 9.86523C32.4108 10.0794 32.2376 10.2845 32.0234 10.4805C31.8138 10.6719 31.5609 10.8291 31.2646 10.9521C30.973 11.0752 30.6357 11.1367 30.2529 11.1367C29.7699 11.1367 29.3392 11.041 28.9609 10.8496C28.5827 10.6536 28.2865 10.3916 28.0723 10.0635C27.8581 9.73079 27.751 9.35482 27.751 8.93555C27.751 8.54362 27.8239 8.19727 27.9697 7.89648C28.1201 7.59115 28.3389 7.33594 28.626 7.13086C28.9176 6.92578 29.2731 6.77083 29.6924 6.66602C30.1117 6.55664 30.5902 6.50195 31.1279 6.50195H32.4199ZM40.2949 3.60352H41.792V10.7949C41.792 11.4603 41.6507 12.0254 41.3682 12.4902C41.0856 12.9551 40.6914 13.3083 40.1855 13.5498C39.6797 13.7959 39.0941 13.9189 38.4287 13.9189C38.1462 13.9189 37.8317 13.8779 37.4854 13.7959C37.1436 13.7139 36.8109 13.5817 36.4873 13.3994C36.1683 13.2217 35.9017 12.987 35.6875 12.6953L36.46 11.7246C36.7243 12.0391 37.016 12.2692 37.335 12.415C37.654 12.5609 37.9889 12.6338 38.3398 12.6338C38.7181 12.6338 39.0394 12.5632 39.3037 12.4219C39.5726 12.2852 39.7799 12.0824 39.9258 11.8135C40.0716 11.5446 40.1445 11.2165 40.1445 10.8291V5.27832L40.2949 3.60352ZM35.2705 7.38379V7.24023C35.2705 6.67969 35.3389 6.16927 35.4756 5.70898C35.6123 5.24414 35.8083 4.84538 36.0635 4.5127C36.3187 4.17546 36.6286 3.91797 36.9932 3.74023C37.3577 3.55794 37.7702 3.4668 38.2305 3.4668C38.709 3.4668 39.1169 3.55339 39.4541 3.72656C39.7959 3.89974 40.0807 4.14811 40.3086 4.47168C40.5365 4.79069 40.7142 5.1735 40.8418 5.62012C40.974 6.06217 41.0719 6.55436 41.1357 7.09668V7.55469C41.0765 8.08333 40.9762 8.56641 40.835 9.00391C40.6937 9.44141 40.5068 9.81966 40.2744 10.1387C40.042 10.4577 39.7549 10.7038 39.4131 10.877C39.0758 11.0501 38.6771 11.1367 38.2168 11.1367C37.7656 11.1367 37.3577 11.0433 36.9932 10.8564C36.6331 10.6696 36.3232 10.4076 36.0635 10.0703C35.8083 9.73307 35.6123 9.33659 35.4756 8.88086C35.3389 8.42057 35.2705 7.92155 35.2705 7.38379ZM36.918 7.24023V7.38379C36.918 7.72103 36.9499 8.03548 37.0137 8.32715C37.082 8.61882 37.1846 8.8763 37.3213 9.09961C37.4626 9.31836 37.6403 9.49154 37.8545 9.61914C38.0732 9.74219 38.3307 9.80371 38.627 9.80371C39.0143 9.80371 39.3311 9.72168 39.5771 9.55762C39.8278 9.39355 40.0192 9.17253 40.1514 8.89453C40.2881 8.61198 40.3838 8.29753 40.4385 7.95117V6.71387C40.4111 6.44499 40.3542 6.19434 40.2676 5.96191C40.1855 5.72949 40.0739 5.52669 39.9326 5.35352C39.7913 5.17578 39.6136 5.03906 39.3994 4.94336C39.1852 4.8431 38.9323 4.79297 38.6406 4.79297C38.3444 4.79297 38.0869 4.85677 37.8682 4.98438C37.6494 5.11198 37.4694 5.28743 37.3281 5.51074C37.1914 5.73405 37.0889 5.99382 37.0205 6.29004C36.9521 6.58626 36.918 6.90299 36.918 7.24023ZM46.7617 11.1367C46.2148 11.1367 45.7204 11.0479 45.2783 10.8701C44.8408 10.6878 44.4671 10.4349 44.1572 10.1113C43.8519 9.78776 43.6172 9.40723 43.4531 8.96973C43.2891 8.53223 43.207 8.06055 43.207 7.55469V7.28125C43.207 6.70247 43.2913 6.17839 43.46 5.70898C43.6286 5.23958 43.8633 4.83854 44.1641 4.50586C44.4648 4.16862 44.8203 3.91113 45.2305 3.7334C45.6406 3.55566 46.085 3.4668 46.5635 3.4668C47.0921 3.4668 47.5547 3.55566 47.9512 3.7334C48.3477 3.91113 48.6758 4.16178 48.9355 4.48535C49.1999 4.80436 49.3958 5.1849 49.5234 5.62695C49.6556 6.06901 49.7217 6.55664 49.7217 7.08984V7.79395H44.0068V6.61133H48.0947V6.48145C48.0856 6.18522 48.0264 5.90723 47.917 5.64746C47.8122 5.3877 47.6504 5.17806 47.4316 5.01855C47.2129 4.85905 46.9212 4.7793 46.5566 4.7793C46.2832 4.7793 46.0394 4.83854 45.8252 4.95703C45.6156 5.07096 45.4401 5.2373 45.2988 5.45605C45.1576 5.6748 45.0482 5.93913 44.9707 6.24902C44.8978 6.55436 44.8613 6.89844 44.8613 7.28125V7.55469C44.8613 7.87826 44.9046 8.17904 44.9912 8.45703C45.0824 8.73047 45.2145 8.96973 45.3877 9.1748C45.5609 9.37988 45.7705 9.54167 46.0166 9.66016C46.2627 9.77409 46.543 9.83105 46.8574 9.83105C47.2539 9.83105 47.6071 9.7513 47.917 9.5918C48.2269 9.43229 48.4958 9.20671 48.7236 8.91504L49.5918 9.75586C49.4323 9.98828 49.2249 10.2116 48.9697 10.4258C48.7145 10.6354 48.4023 10.8063 48.0332 10.9385C47.6686 11.0706 47.2448 11.1367 46.7617 11.1367ZM57.5146 9.82422C57.7835 9.82422 58.0251 9.77181 58.2393 9.66699C58.458 9.55762 58.6335 9.40723 58.7656 9.21582C58.9023 9.02441 58.9775 8.80339 58.9912 8.55273H60.543C60.5339 9.03125 60.3926 9.46647 60.1191 9.8584C59.8457 10.2503 59.4834 10.5625 59.0322 10.7949C58.5811 11.0228 58.082 11.1367 57.5352 11.1367C56.9701 11.1367 56.4779 11.041 56.0586 10.8496C55.6393 10.6536 55.2907 10.3848 55.0127 10.043C54.7347 9.70117 54.5251 9.30697 54.3838 8.86035C54.2471 8.41374 54.1787 7.93522 54.1787 7.4248V7.18555C54.1787 6.67513 54.2471 6.19661 54.3838 5.75C54.5251 5.29883 54.7347 4.90234 55.0127 4.56055C55.2907 4.21875 55.6393 3.95215 56.0586 3.76074C56.4779 3.56478 56.9678 3.4668 57.5283 3.4668C58.1208 3.4668 58.6403 3.58529 59.0869 3.82227C59.5335 4.05469 59.8844 4.38053 60.1396 4.7998C60.3994 5.21452 60.5339 5.69759 60.543 6.24902H58.9912C58.9775 5.97559 58.9092 5.72949 58.7861 5.51074C58.6676 5.28743 58.499 5.1097 58.2803 4.97754C58.0661 4.84538 57.8086 4.7793 57.5078 4.7793C57.1751 4.7793 56.8994 4.84766 56.6807 4.98438C56.4619 5.11654 56.291 5.29883 56.168 5.53125C56.0449 5.75911 55.9561 6.0166 55.9014 6.30371C55.8512 6.58626 55.8262 6.88021 55.8262 7.18555V7.4248C55.8262 7.73014 55.8512 8.02637 55.9014 8.31348C55.9515 8.60059 56.0381 8.85807 56.1611 9.08594C56.2887 9.30924 56.4619 9.48926 56.6807 9.62598C56.8994 9.75814 57.1774 9.82422 57.5146 9.82422ZM61.4932 7.38379V7.22656C61.4932 6.69336 61.5706 6.19889 61.7256 5.74316C61.8805 5.28288 62.1038 4.88411 62.3955 4.54688C62.6917 4.20508 63.0518 3.94076 63.4756 3.75391C63.904 3.5625 64.387 3.4668 64.9248 3.4668C65.4671 3.4668 65.9502 3.5625 66.374 3.75391C66.8024 3.94076 67.1647 4.20508 67.4609 4.54688C67.7572 4.88411 67.9827 5.28288 68.1377 5.74316C68.2926 6.19889 68.3701 6.69336 68.3701 7.22656V7.38379C68.3701 7.91699 68.2926 8.41146 68.1377 8.86719C67.9827 9.32292 67.7572 9.72168 67.4609 10.0635C67.1647 10.4007 66.8047 10.665 66.3809 10.8564C65.957 11.0433 65.4762 11.1367 64.9385 11.1367C64.3962 11.1367 63.9108 11.0433 63.4824 10.8564C63.0586 10.665 62.6986 10.4007 62.4023 10.0635C62.1061 9.72168 61.8805 9.32292 61.7256 8.86719C61.5706 8.41146 61.4932 7.91699 61.4932 7.38379ZM63.1406 7.22656V7.38379C63.1406 7.71647 63.1748 8.03092 63.2432 8.32715C63.3115 8.62337 63.4186 8.88314 63.5645 9.10645C63.7103 9.32975 63.8971 9.50521 64.125 9.63281C64.3529 9.76042 64.624 9.82422 64.9385 9.82422C65.2438 9.82422 65.5081 9.76042 65.7314 9.63281C65.9593 9.50521 66.1462 9.32975 66.292 9.10645C66.4378 8.88314 66.5449 8.62337 66.6133 8.32715C66.6862 8.03092 66.7227 7.71647 66.7227 7.38379V7.22656C66.7227 6.89844 66.6862 6.58854 66.6133 6.29688C66.5449 6.00065 66.4355 5.73861 66.2852 5.51074C66.1393 5.28288 65.9525 5.10514 65.7246 4.97754C65.5013 4.84538 65.2347 4.7793 64.9248 4.7793C64.6149 4.7793 64.346 4.84538 64.1182 4.97754C63.8949 5.10514 63.7103 5.28288 63.5645 5.51074C63.4186 5.73861 63.3115 6.00065 63.2432 6.29688C63.1748 6.58854 63.1406 6.89844 63.1406 7.22656ZM69.4365 7.38379V7.22656C69.4365 6.69336 69.514 6.19889 69.6689 5.74316C69.8239 5.28288 70.0472 4.88411 70.3389 4.54688C70.6351 4.20508 70.9951 3.94076 71.4189 3.75391C71.8473 3.5625 72.3304 3.4668 72.8682 3.4668C73.4105 3.4668 73.8936 3.5625 74.3174 3.75391C74.7458 3.94076 75.1081 4.20508 75.4043 4.54688C75.7005 4.88411 75.9261 5.28288 76.0811 5.74316C76.236 6.19889 76.3135 6.69336 76.3135 7.22656V7.38379C76.3135 7.91699 76.236 8.41146 76.0811 8.86719C75.9261 9.32292 75.7005 9.72168 75.4043 10.0635C75.1081 10.4007 74.748 10.665 74.3242 10.8564C73.9004 11.0433 73.4196 11.1367 72.8818 11.1367C72.3395 11.1367 71.8542 11.0433 71.4258 10.8564C71.002 10.665 70.6419 10.4007 70.3457 10.0635C70.0495 9.72168 69.8239 9.32292 69.6689 8.86719C69.514 8.41146 69.4365 7.91699 69.4365 7.38379ZM71.084 7.22656V7.38379C71.084 7.71647 71.1182 8.03092 71.1865 8.32715C71.2549 8.62337 71.362 8.88314 71.5078 9.10645C71.6536 9.32975 71.8405 9.50521 72.0684 9.63281C72.2962 9.76042 72.5674 9.82422 72.8818 9.82422C73.1872 9.82422 73.4515 9.76042 73.6748 9.63281C73.9027 9.50521 74.0895 9.32975 74.2354 9.10645C74.3812 8.88314 74.4883 8.62337 74.5566 8.32715C74.6296 8.03092 74.666 7.71647 74.666 7.38379V7.22656C74.666 6.89844 74.6296 6.58854 74.5566 6.29688C74.4883 6.00065 74.3789 5.73861 74.2285 5.51074C74.0827 5.28288 73.8958 5.10514 73.668 4.97754C73.4447 4.84538 73.1781 4.7793 72.8682 4.7793C72.5583 4.7793 72.2894 4.84538 72.0615 4.97754C71.8382 5.10514 71.6536 5.28288 71.5078 5.51074C71.362 5.73861 71.2549 6.00065 71.1865 6.29688C71.1182 6.58854 71.084 6.89844 71.084 7.22656ZM79.3555 0.5V11H77.7012V0.5H79.3555ZM83.9492 3.60352L80.7295 7.17188L78.9658 8.97656L78.5352 7.58203L79.8682 5.93457L81.96 3.60352H83.9492ZM82.3154 11L79.916 7.52734L80.9551 6.37207L84.2227 11H82.3154ZM86.7588 3.60352V11H85.1045V3.60352H86.7588ZM84.9951 1.66211C84.9951 1.41146 85.0771 1.2041 85.2412 1.04004C85.4098 0.871419 85.6423 0.787109 85.9385 0.787109C86.2301 0.787109 86.4603 0.871419 86.6289 1.04004C86.7975 1.2041 86.8818 1.41146 86.8818 1.66211C86.8818 1.9082 86.7975 2.11328 86.6289 2.27734C86.4603 2.44141 86.2301 2.52344 85.9385 2.52344C85.6423 2.52344 85.4098 2.44141 85.2412 2.27734C85.0771 2.11328 84.9951 1.9082 84.9951 1.66211ZM91.8242 11.1367C91.2773 11.1367 90.7829 11.0479 90.3408 10.8701C89.9033 10.6878 89.5296 10.4349 89.2197 10.1113C88.9144 9.78776 88.6797 9.40723 88.5156 8.96973C88.3516 8.53223 88.2695 8.06055 88.2695 7.55469V7.28125C88.2695 6.70247 88.3538 6.17839 88.5225 5.70898C88.6911 5.23958 88.9258 4.83854 89.2266 4.50586C89.5273 4.16862 89.8828 3.91113 90.293 3.7334C90.7031 3.55566 91.1475 3.4668 91.626 3.4668C92.1546 3.4668 92.6172 3.55566 93.0137 3.7334C93.4102 3.91113 93.7383 4.16178 93.998 4.48535C94.2624 4.80436 94.4583 5.1849 94.5859 5.62695C94.7181 6.06901 94.7842 6.55664 94.7842 7.08984V7.79395H89.0693V6.61133H93.1572V6.48145C93.1481 6.18522 93.0889 5.90723 92.9795 5.64746C92.8747 5.3877 92.7129 5.17806 92.4941 5.01855C92.2754 4.85905 91.9837 4.7793 91.6191 4.7793C91.3457 4.7793 91.1019 4.83854 90.8877 4.95703C90.6781 5.07096 90.5026 5.2373 90.3613 5.45605C90.2201 5.6748 90.1107 5.93913 90.0332 6.24902C89.9603 6.55436 89.9238 6.89844 89.9238 7.28125V7.55469C89.9238 7.87826 89.9671 8.17904 90.0537 8.45703C90.1449 8.73047 90.277 8.96973 90.4502 9.1748C90.6234 9.37988 90.833 9.54167 91.0791 9.66016C91.3252 9.77409 91.6055 9.83105 91.9199 9.83105C92.3164 9.83105 92.6696 9.7513 92.9795 9.5918C93.2894 9.43229 93.5583 9.20671 93.7861 8.91504L94.6543 9.75586C94.4948 9.98828 94.2874 10.2116 94.0322 10.4258C93.777 10.6354 93.4648 10.8063 93.0957 10.9385C92.7311 11.0706 92.3073 11.1367 91.8242 11.1367ZM100.219 8.99707C100.219 8.83301 100.178 8.6849 100.096 8.55273C100.014 8.41602 99.8564 8.29297 99.624 8.18359C99.3962 8.07422 99.0589 7.97396 98.6123 7.88281C98.2204 7.79622 97.8604 7.69368 97.5322 7.5752C97.2087 7.45215 96.9307 7.30404 96.6982 7.13086C96.4658 6.95768 96.2858 6.7526 96.1582 6.51562C96.0306 6.27865 95.9668 6.00521 95.9668 5.69531C95.9668 5.39453 96.0329 5.1097 96.165 4.84082C96.2972 4.57194 96.4863 4.33496 96.7324 4.12988C96.9785 3.9248 97.277 3.76302 97.6279 3.64453C97.9834 3.52604 98.3799 3.4668 98.8174 3.4668C99.4372 3.4668 99.9681 3.57161 100.41 3.78125C100.857 3.98633 101.199 4.2666 101.436 4.62207C101.673 4.97298 101.791 5.36947 101.791 5.81152H100.144C100.144 5.61556 100.093 5.43327 99.9932 5.26465C99.8975 5.09147 99.7516 4.95247 99.5557 4.84766C99.3597 4.73828 99.1136 4.68359 98.8174 4.68359C98.5348 4.68359 98.3001 4.72917 98.1133 4.82031C97.931 4.9069 97.7943 5.02083 97.7031 5.16211C97.6165 5.30339 97.5732 5.45833 97.5732 5.62695C97.5732 5.75 97.596 5.86165 97.6416 5.96191C97.6917 6.05762 97.7738 6.14648 97.8877 6.22852C98.0016 6.30599 98.1566 6.37891 98.3525 6.44727C98.5531 6.51562 98.8037 6.58171 99.1045 6.64551C99.6696 6.764 100.155 6.91667 100.561 7.10352C100.971 7.28581 101.285 7.52279 101.504 7.81445C101.723 8.10156 101.832 8.46615 101.832 8.9082C101.832 9.23633 101.761 9.53711 101.62 9.81055C101.483 10.0794 101.283 10.3141 101.019 10.5146C100.754 10.7106 100.438 10.8633 100.068 10.9727C99.7038 11.082 99.2936 11.1367 98.8379 11.1367C98.168 11.1367 97.6006 11.0182 97.1357 10.7812C96.6709 10.5397 96.3177 10.2321 96.0762 9.8584C95.8392 9.48014 95.7207 9.08822 95.7207 8.68262H97.3135C97.3317 8.98796 97.416 9.23177 97.5664 9.41406C97.7214 9.5918 97.9128 9.72168 98.1406 9.80371C98.373 9.88118 98.6123 9.91992 98.8584 9.91992C99.1546 9.91992 99.403 9.88118 99.6035 9.80371C99.804 9.72168 99.9567 9.6123 100.062 9.47559C100.166 9.33431 100.219 9.1748 100.219 8.99707Z" fill="#687F8C"/>
</svg>
