<svg width="28" height="13" viewBox="0 0 28 13" fill="none" xmlns="http://www.w3.org/2000/svg">
<path d="M5.004 10.216C7.584 10.216 9.444 8.32 9.444 5.752C9.444 3.184 7.584 1.288 5.004 1.288C2.424 1.288 0.564 3.184 0.564 5.752C0.564 8.32 2.424 10.216 5.004 10.216ZM5.004 9.28C3.012 9.28 1.644 7.708 1.644 5.752C1.644 3.796 3.012 2.224 5.004 2.224C6.996 2.224 8.364 3.796 8.364 5.752C8.364 7.708 6.996 9.28 5.004 9.28ZM10.8958 10H11.8318V7.048L14.6158 10H15.9958L13.0078 6.94L15.7198 4.384H14.3878L11.8318 6.856V0.927999H10.8958V10ZM17.4118 5.716C17.8558 5.308 18.4798 5.104 19.0798 5.104C19.9558 5.104 20.4718 5.524 20.4718 6.34V6.508H20.1118C18.7318 6.508 16.5718 6.616 16.5718 8.476C16.5718 9.568 17.5198 10.144 18.6598 10.144C19.5118 10.144 20.1358 9.736 20.5078 9.16H20.5318C20.5318 9.4 20.5318 9.748 20.5918 10H21.4918C21.4438 9.712 21.4078 9.352 21.4078 9.028V6.616C21.4078 5.032 20.7118 4.24 19.0558 4.24C18.2398 4.24 17.3998 4.516 16.8238 5.104L17.4118 5.716ZM20.4718 7.3V7.66C20.4478 8.572 19.8958 9.352 18.8158 9.352C18.1078 9.352 17.5798 9.088 17.5798 8.38C17.5798 7.624 18.3478 7.3 19.5358 7.3H20.4718ZM27.8945 4.384H26.8745L25.2065 8.788H25.1825L23.4425 4.384H22.3505L24.6785 10.036L24.2945 11.092C24.0905 11.644 23.8625 12.016 23.2505 12.016C22.9865 12.016 22.7825 11.992 22.5905 11.92L22.4705 12.736C22.7225 12.856 23.0465 12.88 23.3105 12.88C24.4385 12.88 24.8105 12.232 25.1825 11.284L27.8945 4.384Z" fill="#26262B"/>
</svg>
